<svg height="512pt" viewBox="0 0 512 512" width="512pt" xmlns="http://www.w3.org/2000/svg"><path d="m512 256c0 141.386719-114.613281 256-256 256s-256-114.613281-256-256 114.613281-256 256-256 256 114.613281 256 256zm0 0" fill="#2a2f4f"/><g fill="#3d4159"><path d="m373.027344 384.519531c0 6.355469 5.140625 11.496094 11.492187 11.496094h5.507813c17.15625 0 31.0625 13.917969 31.0625 31.074219v5.496094c0 3.175781 1.285156 6.050781 3.367187 8.128906 1.492188 1.496094 3.394531 2.582031 5.527344 3.0625 4.878906-4.515625 9.589844-9.226563 14.09375-14.117188v-2.570312c0-15.433594 11.253906-28.242188 26.007813-30.65625 4.871093-7.417969 9.363281-15.097656 13.457031-23.03125-.917969-.25-1.890625-.375-2.894531-.375h-5.503907c-17.160156 0-31.066406-13.90625-31.066406-31.066406v-5.503907c0-3.167969-1.285156-6.050781-3.363281-8.128906-2.082032-2.082031-4.953125-3.367187-8.128906-3.367187-6.355469 0-11.496094 5.152343-11.496094 11.496093v5.503907c0 17.160156-13.90625 31.066406-31.0625 31.066406h-5.507813c-3.175781 0-6.050781 1.285156-8.128906 3.363281-2.078125 2.082031-3.363281 4.964844-3.363281 8.128906zm0 0"/><path d="m31.34375 272.722656h5.503906c17.15625 0 31.066406-13.910156 31.066406-31.070312v-5.5c0-6.347656 5.148438-11.496094 11.496094-11.496094s11.492188 5.148438 11.492188 11.496094v5.5c0 17.160156 13.910156 31.070312 31.070312 31.070312h5.5c6.347656 0 11.496094 5.144532 11.496094 11.492188s-5.148438 11.496094-11.496094 11.496094h-5.5c-17.160156 0-31.070312 13.910156-31.070312 31.070312v5.5c0 6.347656-5.144532 11.496094-11.492188 11.496094s-11.496094-5.148438-11.496094-11.496094v-5.5c0-17.160156-13.910156-31.070312-31.066406-31.070312h-5.503906c-6.347656 0-11.492188-5.148438-11.492188-11.496094s5.144532-11.492188 11.492188-11.492188zm0 0"/><path d="m385.5625 87.769531v.011719c0 6.34375 5.152344 11.492188 11.496094 11.492188h5.507812c17.15625 0 31.0625 13.910156 31.0625 31.066406v5.507812c0 3.175782 1.285156 6.039063 3.363282 8.128906 2.089843 2.078126 4.953124 3.363282 8.132812 3.363282 6.351562 0 11.492188-5.152344 11.492188-11.492188v-5.507812c0-8.410156 3.34375-16.039063 8.789062-21.628906-11.277344-16.007813-24.347656-30.667969-38.925781-43.675782-5.683594 6.875-14.292969 11.25-23.914063 11.25h-5.507812c-6.34375 0-11.496094 5.144532-11.496094 11.484375zm0 0"/></g><path d="m422.320312 256c0 62.066406-34 116.191406-84.398437 144.757812v.011719c-24.175781 13.710938-52.140625 21.546875-81.917969 21.546875-21.722656 0-42.476562-4.171875-61.492187-11.746094h-.023438c-61.40625-24.449218-104.800781-84.4375-104.800781-154.570312 0-46.613281 19.171875-88.753906 50.070312-118.941406 29.980469-29.308594 71-47.375 116.246094-47.375 18.996094 0 37.25 3.1875 54.25 9.046875 65.210938 22.496093 112.066406 84.40625 112.066406 157.269531zm0 0" fill="#66baed"/><path d="m291.101562 418.59375c-11.316406 2.4375-23.0625 3.722656-35.097656 3.722656-21.722656 0-42.476562-4.171875-61.492187-11.746094h-.023438c-61.40625-24.449218-104.800781-84.4375-104.800781-154.570312 0-46.613281 19.171875-88.753906 50.070312-118.941406 29.980469-29.308594 71-47.375 116.246094-47.375 12.035156 0 23.769532 1.273437 35.078125 3.71875-31.191406 6.699218-59.132812 22.152344-81.128906 43.65625-30.894531 30.1875-50.070313 72.328125-50.070313 118.941406 0 70.132812 43.394532 130.121094 104.804688 154.570312h.019531c8.472657 3.375 17.292969 6.082032 26.394531 8.023438zm0 0" fill="#2ba1cf"/><path d="m422.320312 256c0 62.066406-34 116.191406-84.398437 144.757812-28.984375-59.035156-96.402344-6.78125-104.238281-80.433593-7.824219-73.667969 80.71875-47.804688 106.582031-73.667969 25.859375-25.859375 0-65.828125-21.945313-43.882812-21.941406 21.941406-54.855468 15.671874-47.019531-6.269532 7.835938-21.945312 45.453125-31.347656 18.390625-40.753906-27.074218-9.390625 0-36.464844 20.542969-57.007812l.019531-.011719c43.25 14.921875 78.421875 47.179687 97.195313 88.460937-20.164063 0-38.972657 34.386719-20.164063 53.195313 10.207032 10.210937 22.894532 13 35.023438 13.910156.011718.5625.011718 1.136719.011718 1.703125zm0 0" fill="#3fb777"/><path d="m194.511719 410.570312h-.023438c-61.40625-24.449218-104.800781-84.4375-104.800781-154.570312 0-46.613281 19.171875-88.753906 50.070312-118.941406 45.347657 10.867187 53.1875 42.203125 23.40625 53.175781-29.351562 10.8125-31.292968 30.761719-1.347656 40.332031.449219.144532.886719.28125 1.347656.417969 21.179688 6.351563 13.019532 26.308594-2.726562 38.585937-7.542969 5.882813-16.84375 10-25.484375 10-26.644531 0-4.703125 54.074219 27.425781 54.074219 32.132813 0 32.132813 76.925781 32.132813 76.925781zm0 0" fill="#3fb777"/><path d="m194.511719 410.570312h-.023438c-61.40625-24.449218-104.800781-84.4375-104.800781-154.570312 0-46.613281 19.171875-88.753906 50.070312-118.941406 45.347657 10.867187 53.1875 42.203125 23.40625 53.175781-29.351562 10.8125-31.292968 30.761719-1.347656 40.332031-1.273437 8.296875-1.933594 16.78125-1.933594 25.433594 0 4.566406.1875 9.089844.554688 13.570312-7.542969 5.882813-16.84375 10-25.484375 10-26.644531 0-4.703125 54.074219 27.425781 54.074219 32.132813 0 32.132813 76.925781 32.132813 76.925781zm0 0" fill="#2da365"/><path d="m40.867188 199.234375v-104.636719c0-10.632812 1.773437-21.050781 5.273437-30.964844 13.09375-37.265624 48.460937-62.3125 87.996094-62.3125 4.894531 0 9.785156.378907 14.53125 1.128907 21.722656 3.394531 41.648437 14.480469 56.101562 31.21875 14.601563 16.917969 22.644531 38.554687 22.644531 60.925781v104.640625" fill="#f74f4f"/><path d="m79.234375 98.679688c0 37.015624 21.671875 79.835937 33.574219 100.558593h-71.945313v-104.640625c0-10.632812 1.773438-21.050781 5.273438-30.964844 13.015625-37.050781 48.058593-62.023437 87.316406-62.304687-28.675781.714844-54.21875 46.722656-54.21875 97.351563zm0 0" fill="#dd3033"/><path d="m66.230469 139.445312c0 11.460938-8.371094 20.960938-19.332031 22.726563-1.199219.195313-2.429688.296875-3.6875.296875-12.71875 0-23.019532-10.304688-23.019532-23.023438s10.300782-23.019531 23.019532-23.019531c1.257812 0 2.488281.101563 3.6875.292969 10.960937 1.765625 19.332031 11.269531 19.332031 22.726562zm0 0" fill="#f6caae"/><path d="m66.230469 139.445312c0 11.460938-8.371094 20.960938-19.332031 22.726563-1.992188-7.242187-3.054688-14.859375-3.054688-22.726563 0-7.863281 1.0625-15.484374 3.054688-22.726562 10.960937 1.765625 19.332031 11.269531 19.332031 22.726562zm0 0" fill="#eab599"/><path d="m51.4375 139.445312c0 4.542969-3.683594 8.226563-8.226562 8.226563-4.542969 0-8.226563-3.683594-8.226563-8.226563 0-4.542968 3.683594-8.226562 8.226563-8.226562 4.542968 0 8.226562 3.683594 8.226562 8.226562zm0 0" fill="#eab599"/><path d="m193.25 110.050781v79.132813c-12.230469 11.675781-27.914062 19.761718-45.367188 22.574218-.136718.023438-.28125.046876-.417968.066407-4.335938.695312-8.785156 1.039062-13.328125 1.039062-47.300781 0-85.648438-38.347656-85.648438-85.648437v-32.617188c0-4.175781.296875-8.285156.875-12.300781 20.378907 14.65625 49.597657 13.207031 68.210938-4.390625 6.167969-5.820312 10.449219-12.753906 12.871093-20.109375 1.351563 12.878906 7.242188 25.414063 17.679688 35.285156 12.433594 11.734375 28.855469 17.394531 45.125 16.96875zm0 0" fill="#eab599"/><path d="m193.25 110.050781v79.132813c-12.230469 11.675781-27.914062 19.761718-45.367188 22.574218-.136718.023438-.28125.046876-.417968.066407-40.96875-6.398438-72.304688-41.851563-72.304688-84.609375v-32.617188c0-.871094.015625-1.730468.042969-2.59375 15.105469 1.550782 30.789063-3.144531 42.371094-14.097656 6.167969-5.820312 10.449219-12.757812 12.871093-20.109375 1.351563 12.878906 7.242188 25.414063 17.679688 35.28125 12.433594 11.738281 28.855469 17.398437 45.125 16.972656zm0 0" fill="#f6caae"/><path d="m180.136719 119.980469c0-7.859375-6.371094-14.226563-14.226563-14.226563-7.855468 0-14.222656 6.367188-14.222656 14.226563" fill="#eab599"/><path d="m116.597656 119.980469c0-7.859375-6.367187-14.226563-14.222656-14.226563-7.859375 0-14.226562 6.367188-14.226562 14.226563" fill="#eab599"/><path d="m112.089844 126.035156c0 5.367188-4.351563 9.71875-9.714844 9.71875-5.367188 0-9.71875-4.351562-9.71875-9.71875 0-5.367187 4.351562-9.714844 9.71875-9.714844 5.363281 0 9.714844 4.347657 9.714844 9.714844zm0 0" fill="#3d4159"/><path d="m175.628906 126.035156c0 5.367188-4.351562 9.71875-9.71875 9.71875-5.367187 0-9.714844-4.351562-9.714844-9.71875 0-5.367187 4.347657-9.714844 9.714844-9.714844 5.367188 0 9.71875 4.347657 9.71875 9.714844zm0 0" fill="#3d4159"/><path d="m143.859375 150.5h-19.433594c-2.3125 0-4.191406-1.875-4.191406-4.191406 0-2.3125 1.878906-4.191406 4.191406-4.191406h19.433594c2.316406 0 4.191406 1.878906 4.191406 4.191406 0 2.316406-1.875 4.191406-4.191406 4.191406zm0 0" fill="#eab599"/><path d="m134.144531 177.015625c-7.171875 0-14.347656-1.796875-20.882812-5.390625-1.84375-1.011719-2.519531-3.328125-1.503907-5.171875 1.011719-1.847656 3.332032-2.519531 5.171876-1.503906 10.777343 5.921875 23.648437 5.921875 34.421874 0 1.84375-1.015625 4.164063-.34375 5.175782 1.503906 1.015625 1.84375.339844 4.160156-1.503906 5.171875-6.535157 3.59375-13.707032 5.390625-20.878907 5.390625zm0 0" fill="#eab599"/><path d="m110.109375 124.320312c0 2.300782-1.863281 4.164063-4.164063 4.164063-2.296874 0-4.164062-1.863281-4.164062-4.164063 0-2.300781 1.867188-4.164062 4.164062-4.164062 2.300782 0 4.164063 1.863281 4.164063 4.164062zm0 0" fill="#fff"/><path d="m174.125 124.320312c0 2.300782-1.867188 4.164063-4.164062 4.164063-2.300782 0-4.164063-1.863281-4.164063-4.164063 0-2.300781 1.863281-4.164062 4.164063-4.164062 2.296874 0 4.164062 1.863281 4.164062 4.164062zm0 0" fill="#fff"/><path d="m192.4375 149.703125c0 5.890625-4.777344 10.667969-10.667969 10.667969-5.894531 0-10.671875-4.777344-10.671875-10.667969 0-5.894531 4.777344-10.671875 10.671875-10.671875 5.890625 0 10.667969 4.777344 10.667969 10.671875zm0 0" fill="#eab599"/><path d="m97.179688 149.703125c0 5.890625-4.777344 10.667969-10.667969 10.667969-5.894531 0-10.671875-4.777344-10.671875-10.667969 0-5.894531 4.777344-10.671875 10.671875-10.671875 5.890625 0 10.667969 4.777344 10.667969 10.671875zm0 0" fill="#eab599"/><path d="m321.734375 246.421875c0 11.992187-8.757813 21.933594-20.226563 23.777344-1.253906.203125-2.542968.308593-3.859374.308593-13.304688 0-24.085938-10.78125-24.085938-24.085937s10.78125-24.085937 24.085938-24.085937c1.316406 0 2.605468.105468 3.859374.308593 11.46875 1.847657 20.226563 11.789063 20.226563 23.777344zm0 0" fill="#f6caae"/><path d="m321.734375 246.421875c0 11.992187-8.757813 21.933594-20.226563 23.777344-2.082031-7.574219-3.195312-15.546875-3.195312-23.777344 0-8.226563 1.113281-16.199219 3.195312-23.777344 11.46875 1.847657 20.226563 11.789063 20.226563 23.777344zm0 0" fill="#eab599"/><path d="m306.257812 246.421875c0 4.753906-3.855468 8.609375-8.609374 8.609375-4.753907 0-8.605469-3.855469-8.605469-8.609375s3.851562-8.605469 8.605469-8.605469c4.753906 0 8.609374 3.851563 8.609374 8.605469zm0 0" fill="#eab599"/><path d="m463.828125 246.421875c0 11.992187 8.757813 21.933594 20.226563 23.777344 1.253906.203125 2.542968.308593 3.859374.308593 13.304688 0 24.085938-10.78125 24.085938-24.085937s-10.78125-24.085937-24.085938-24.085937c-1.316406 0-2.605468.105468-3.859374.308593-11.46875 1.847657-20.226563 11.789063-20.226563 23.777344zm0 0" fill="#f6caae"/><path d="m463.828125 246.421875c0 11.992187 8.757813 21.933594 20.226563 23.777344 2.085937-7.574219 3.195312-15.546875 3.195312-23.777344 0-8.226563-1.109375-16.199219-3.195312-23.777344-11.46875 1.847657-20.226563 11.789063-20.226563 23.777344zm0 0" fill="#eab599"/><path d="m496.523438 246.421875c0 4.753906-3.855469 8.609375-8.609376 8.609375-4.753906 0-8.609374-3.855469-8.609374-8.609375s3.855468-8.605469 8.609374-8.605469c4.753907 0 8.609376 3.851563 8.609376 8.605469zm0 0" fill="#eab599"/><path d="m482.398438 233.621094c0 44.59375-32.578126 81.589844-75.234376 88.457031-4.675781.769531-9.480468 1.15625-14.382812 1.15625-49.496094 0-89.613281-40.117187-89.613281-89.613281 0-23.417969 8.132812-58.574219 22.839843-74.539063 16.375-17.777343 40.695313-15.078125 66.773438-15.078125 4.902344 0 9.703125.390625 14.382812 1.160156 42.65625 6.867188 75.234376 43.859376 75.234376 88.457032zm0 0" fill="#eab599"/><path d="m482.398438 233.621094c0 44.59375-32.578126 81.589844-75.234376 88.457031-42.652343-6.867187-75.230468-43.863281-75.230468-88.457031 0-27.460938 12.351562-52.039063 31.808594-68.480469 12.132812-10.257813 27.035156-17.339844 43.421874-19.980469 39.765626 6.402344 70.785157 39 74.792969 79.523438.292969 2.941406.441407 5.925781.441407 8.9375zm0 0" fill="#f6caae"/><path d="m392.785156 277.757812c-7.507812 0-15.007812-1.878906-21.847656-5.640624-1.933594-1.0625-2.636719-3.484376-1.574219-5.414063 1.058594-1.929687 3.484375-2.632813 5.414063-1.574219 11.273437 6.199219 24.738281 6.199219 36.015625 0 1.925781-1.058594 4.351562-.355468 5.410156 1.574219 1.0625 1.929687.359375 4.351563-1.570313 5.414063-6.839843 3.761718-14.347656 5.640624-21.847656 5.640624zm0 0" fill="#eab599"/><path d="m373.699219 228.402344c0 5.617187-4.550781 10.167968-10.167969 10.167968-5.613281 0-10.164062-4.550781-10.164062-10.167968 0-5.613282 4.550781-10.164063 10.164062-10.164063 5.617188 0 10.167969 4.550781 10.167969 10.164063zm0 0" fill="#3d4159"/><path d="m432.199219 228.402344c0 5.617187-4.550781 10.167968-10.164063 10.167968-5.617187 0-10.167968-4.550781-10.167968-10.167968 0-5.613282 4.550781-10.164063 10.167968-10.164063 5.613282 0 10.164063 4.550781 10.164063 10.164063zm0 0" fill="#3d4159"/><path d="m371.625 226.609375c0 2.40625-1.949219 4.355469-4.355469 4.355469s-4.355469-1.949219-4.355469-4.355469 1.949219-4.355469 4.355469-4.355469 4.355469 1.949219 4.355469 4.355469zm0 0" fill="#fff"/><path d="m430.625 226.609375c0 2.40625-1.949219 4.355469-4.355469 4.355469s-4.355469-1.949219-4.355469-4.355469 1.949219-4.355469 4.355469-4.355469 4.355469 1.949219 4.355469 4.355469zm0 0" fill="#fff"/><path d="m402.949219 254h-20.332031c-2.421876 0-4.386719-1.964844-4.386719-4.386719s1.964843-4.382812 4.386719-4.382812h20.332031c2.421875 0 4.386719 1.960937 4.386719 4.382812-.003907 2.421875-1.964844 4.386719-4.386719 4.386719zm0 0" fill="#eab599"/><path d="m387.539062 118.402344c27.148438 1.941406 48.945313 23.871094 50.324219 51.476562l.257813 5.183594h15.617187l8.410157 55.929688 20.371093-6.304688-2.734375-54.808594c-1.445312-28.996094-25.429687-51.722656-54.453125-51.617187zm0 0" fill="#ffe152"/><path d="m478.058594 96.773438c21.617187 21.617187 21.617187 56.667968 0 78.285156-21.617188 21.617187-56.667969 21.617187-78.285156 0zm0 0" fill="#ffe152"/><path d="m399.773438 175.058594h-67.9375l-8.414063 55.933594-20.371094-6.304688 2.730469-54.808594c1.445312-28.992187 25.429688-51.726562 54.457031-51.617187l98.121094.371093 12.972656 23.347657" fill="#ffe152"/><path d="m398.027344 118.402344c-27.148438 1.941406-48.945313 23.871094-50.324219 51.476562l-.257813 5.183594h-15.613281l-8.414062 55.929688-20.371094-6.304688 2.734375-54.808594c1.445312-28.996094 25.429688-51.722656 54.453125-51.617187zm0 0" fill="#e8c934"/><path d="m110.859375 411c0 11.179688-8.167969 20.449219-18.863281 22.171875-1.167969.1875-2.367188.289063-3.59375.289063-12.410156 0-22.460938-10.054688-22.460938-22.460938s10.050782-22.457031 22.460938-22.457031c1.226562 0 2.425781.097656 3.59375.285156 10.695312 1.71875 18.863281 10.992187 18.863281 22.171875zm0 0" fill="#d3a489"/><path d="m110.859375 411c0 11.179688-8.167969 20.449219-18.863281 22.171875-1.941406-7.066406-2.976563-14.5-2.976563-22.171875s1.035157-15.109375 2.976563-22.171875c10.695312 1.71875 18.863281 10.992187 18.863281 22.171875zm0 0" fill="#bf8e75"/><path d="m96.425781 411c0 4.433594-3.59375 8.027344-8.023437 8.027344-4.433594 0-8.027344-3.59375-8.027344-8.027344s3.59375-8.027344 8.027344-8.027344c4.429687 0 8.023437 3.59375 8.023437 8.027344zm0 0" fill="#bf8e75"/><path d="m243.359375 411c0 11.179688 8.164063 20.449219 18.859375 22.171875 1.167969.1875 2.371094.289063 3.597656.289063 12.40625 0 22.460938-10.054688 22.460938-22.460938s-10.054688-22.457031-22.460938-22.457031c-1.226562 0-2.429687.097656-3.597656.285156-10.695312 1.71875-18.859375 10.992187-18.859375 22.171875zm0 0" fill="#d3a489"/><path d="m243.359375 411c0 11.179688 8.164063 20.449219 18.859375 22.171875 1.941406-7.066406 2.980469-14.5 2.980469-22.171875s-1.039063-15.109375-2.980469-22.171875c-10.695312 1.71875-18.859375 10.992187-18.859375 22.171875zm0 0" fill="#bf8e75"/><path d="m260.671875 367.242188v31.820312c0 41.585938-30.378906 76.082031-70.152344 82.484375-.136719.019531-.277343.042969-.410156.066406-4.230469.675781-8.570313 1.011719-13.003906 1.011719-46.144531 0-83.558594-37.414062-83.558594-83.5625v-31.820312c0-9.714844 1.65625-19.054688 4.71875-27.730469 11.429687-32.519531 42.417969-55.835938 78.839844-55.835938h.007812c4.421875 0 8.773438.34375 13.011719 1.011719 39.96875 6.246094 70.546875 40.832031 70.546875 82.554688zm0 0" fill="#bf8e75"/><path d="m273.84375 411c0 4.433594-3.59375 8.027344-8.027344 8.027344s-8.027344-3.59375-8.027344-8.027344 3.59375-8.027344 8.027344-8.027344 8.027344 3.59375 8.027344 8.027344zm0 0" fill="#bf8e75"/><path d="m260.671875 367.242188v31.820312c0 41.585938-30.378906 76.082031-70.152344 82.484375-.136719.019531-.277343.042969-.410156.066406-39.96875-6.246093-70.539063-40.832031-70.539063-82.550781v-31.820312c0-41.722657 30.578126-76.308594 70.554688-82.554688 39.96875 6.246094 70.546875 40.832031 70.546875 82.554688zm0 0" fill="#d3a489"/><path d="m159.3125 394.199219c0 5.234375-4.242188 9.476562-9.476562 9.476562-5.238282 0-9.480469-4.242187-9.480469-9.476562s4.242187-9.480469 9.480469-9.480469c5.234374 0 9.476562 4.246094 9.476562 9.480469zm0 0" fill="#3d4159"/><path d="m213.863281 394.199219c0 5.234375-4.242187 9.476562-9.476562 9.476562-5.238281 0-9.480469-4.242187-9.480469-9.476562s4.242188-9.480469 9.480469-9.480469c5.234375 0 9.476562 4.246094 9.476562 9.480469zm0 0" fill="#3d4159"/><path d="m157.378906 392.523438c0 2.246093-1.816406 4.0625-4.058594 4.0625-2.246093 0-4.0625-1.816407-4.0625-4.0625 0-2.242188 1.816407-4.058594 4.0625-4.058594 2.242188 0 4.058594 1.816406 4.058594 4.058594zm0 0" fill="#fff"/><path d="m212.398438 392.523438c0 2.246093-1.820313 4.0625-4.0625 4.0625-2.242188 0-4.0625-1.816407-4.0625-4.0625 0-2.242188 1.820312-4.058594 4.0625-4.058594 2.242187 0 4.0625 1.816406 4.0625 4.058594zm0 0" fill="#fff"/><path d="m186.589844 414.347656h-18.957032c-2.261718 0-4.089843-1.832031-4.089843-4.089844 0-2.257812 1.828125-4.085937 4.089843-4.085937h18.957032c2.257812 0 4.089844 1.828125 4.089844 4.085937 0 2.257813-1.832032 4.089844-4.089844 4.089844zm0 0" fill="#bf8e75"/><path d="m177.109375 440.21875c-6.996094 0-13.992187-1.753906-20.371094-5.261719-1.800781-.988281-2.457031-3.246093-1.46875-5.046875.988281-1.796875 3.25-2.453125 5.046875-1.464844 10.515625 5.777344 23.070313 5.777344 33.582032 0 1.800781-.992187 4.0625-.332031 5.050781 1.464844.988281 1.800782.332031 4.058594-1.46875 5.046875-6.375 3.507813-13.375 5.261719-20.371094 5.261719zm0 0" fill="#bf8e75"/><path d="m260.671875 338.363281v32.597657h-15.550781v-25.523438l-112.265625-20.863281-23.753907-4.414063v50.800782h-15.554687v-32.59375c0-37.160157 30.117187-67.277344 67.269531-67.277344h32.585938c.886718 0 1.769531.015625 2.65625.058594 35.917968 1.382812 64.613281 30.941406 64.613281 67.214843zm0 0" fill="#a35418"/><path d="m260.671875 338.363281v32.597657h-15.550781v-25.523438l-112.265625-20.863281c6.183593-29.710938 31.960937-52.222657 63.203125-53.425781 35.917968 1.382812 64.613281 30.941406 64.613281 67.214843zm0 0" fill="#cc7a3b"/></svg>